<?xml version="1.0" encoding="iso-8859-1"?>
<!-- Uploaded to: SVG Repo, www.svgrepo.com, Generator: SVG Repo Mixer Tools -->
<svg fill="#000000" height="800px" width="800px" version="1.1" id="Layer_1" xmlns="http://www.w3.org/2000/svg" xmlns:xlink="http://www.w3.org/1999/xlink" 
	 viewBox="0 0 512 512" xml:space="preserve">
<g>
	<g>
		<g>
			<path d="M475.415,117.769l3.126-73.358c0.499-11.705-3.689-22.808-11.796-31.267C458.64,4.686,447.725,0.028,436.01,0.028
				c-11.715,0-22.631,4.659-30.737,13.117c-8.105,8.458-12.294,19.562-11.796,31.266l3.127,73.358H0v49.198h512v-49.198H475.415z
				 M441.997,117.769h-11.975l-3.187-74.779c-0.146-3.407,1.531-5.687,2.544-6.744c1.013-1.057,3.222-2.83,6.631-2.83
				c3.409,0,5.617,1.773,6.63,2.829s2.69,3.338,2.544,6.745L441.997,117.769z"/>
			<path d="M475.835,200.355H36.143L17.239,427.204c-3.803,45.632,32.208,84.768,77.997,84.768h321.505
				c45.79,0,81.799-39.136,77.998-84.768L475.835,200.355z M323.025,300.149c18.263-3.73,33.47-2.522,33.47-2.522
				s3.923,48.917-23.829,76.668c-7.782,7.782-17.227,13.072-26.791,16.657c10.96-16.661,20.875-38.693,20.875-63.89
				C326.75,317.605,325.349,308.598,323.025,300.149z M155.504,297.627c0,0,15.208-1.209,33.47,2.522
				c-2.324,8.448-3.725,17.456-3.725,26.913c0,25.199,9.914,47.23,20.875,63.89c-9.564-3.586-19.011-8.877-26.791-16.657
				C151.581,346.544,155.504,297.627,155.504,297.627z M184.938,435.486c-39.246,0-71.062-37.363-71.062-37.363
				s9.899-11.608,25.45-21.884c4.33,7.617,9.709,14.978,16.397,21.664c13.691,13.69,31.657,23.41,53.398,28.889
				c2.229,0.562,4.429,1.056,6.599,1.501C206.407,432.536,195.966,435.486,184.938,435.486z M256,398.123
				c0,0-37.364-31.815-37.364-71.062S256,255.999,256,255.999s37.364,31.815,37.364,71.062S256,398.123,256,398.123z
				 M327.061,435.486c-11.028,0-21.469-2.95-30.782-7.193c2.169-0.445,4.37-0.939,6.598-1.501
				c21.742-5.479,39.708-15.198,53.398-28.889c6.686-6.686,12.065-14.047,16.397-21.664c15.552,10.276,25.45,21.884,25.45,21.884
				S366.308,435.486,327.061,435.486z"/>
		</g>
	</g>
</g>
</svg>